<?xml version="1.0" standalone="no"?>
<!DOCTYPE svg PUBLIC "-//W3C//DTD SVG 20010904//EN"
 "http://www.w3.org/TR/2001/REC-SVG-20010904/DTD/svg10.dtd">
<svg version="1.0" xmlns="http://www.w3.org/2000/svg"
 width="128.000000pt" height="148.000000pt" viewBox="0 0 128.000000 148.000000"
 preserveAspectRatio="xMidYMid meet">

<g transform="translate(0.000000,148.000000) scale(0.100000,-0.100000)"
fill="#000000" stroke="none">
<path d="M481 1384 c-162 -43 -306 -165 -385 -325 -54 -110 -76 -200 -76 -319
0 -118 22 -209 75 -318 111 -225 336 -359 569 -339 239 21 440 191 523 442 24
71 27 96 27 215 0 120 -3 144 -27 215 -72 218 -234 378 -433 429 -76 20 -201
20 -273 0z m314 -43 c136 -48 251 -155 321 -296 51 -103 74 -197 74 -305 0
-291 -193 -554 -451 -615 -126 -29 -232 -16 -356 45 -141 69 -241 188 -300
355 -25 73 -28 92 -27 215 0 120 3 144 27 218 66 195 226 352 410 398 75 19
227 11 302 -15z"/>
<path d="M327 1075 c-105 -37 -156 -158 -108 -253 47 -92 159 -129 250 -82 49
25 86 69 71 84 -8 8 -17 3 -32 -17 -28 -38 -69 -57 -125 -57 -149 0 -208 184
-88 276 90 68 221 15 244 -100 8 -38 31 -47 31 -11 0 64 -68 145 -138 165 -47
13 -58 12 -105 -5z"/>
<path d="M837 1075 c-101 -36 -152 -146 -112 -242 20 -48 41 -71 87 -94 119
-61 268 28 268 161 0 78 -62 158 -138 180 -47 13 -58 12 -105 -5z m149 -50
c119 -91 59 -275 -91 -275 -63 0 -107 26 -135 79 -24 48 -26 101 -5 141 16 32
68 75 100 83 36 10 99 -4 131 -28z"/>
<path d="M852 968 c3 -7 17 -14 31 -16 36 -4 34 -23 -4 -44 -25 -15 -30 -23
-27 -50 3 -31 5 -33 41 -33 43 0 55 18 15 23 -16 2 -28 10 -28 17 0 8 12 20
28 27 30 15 41 51 22 74 -16 18 -83 19 -78 2z"/>
<path d="M345 971 c-3 -6 1 -14 9 -17 21 -8 22 -87 1 -104 -21 -18 -9 -30 29
-30 41 0 50 9 32 29 -8 9 -16 41 -18 71 -3 48 -6 55 -25 58 -11 2 -24 -2 -28
-7z"/>
<path d="M617 914 c-15 -15 -6 -24 24 -24 20 0 29 4 27 13 -5 14 -40 21 -51
11z"/>
<path d="M760 690 c-15 -28 -2 -46 16 -23 7 10 14 24 14 31 0 19 -18 14 -30
-8z"/>
<path d="M565 628 c-33 -18 -76 -61 -92 -92 -22 -42 -19 -115 6 -164 66 -129
256 -129 322 0 25 48 29 129 9 153 -19 23 -30 8 -19 -28 19 -67 -18 -144 -85
-176 -53 -26 -79 -26 -132 0 -151 73 -91 303 75 286 25 -2 56 -8 69 -12 32
-11 29 18 -3 33 -33 15 -124 15 -150 0z"/>
<path d="M600 526 c0 -8 12 -16 27 -18 37 -4 40 -26 6 -39 l-28 -11 25 -13
c30 -16 29 -28 -1 -35 -34 -8 -36 -30 -2 -30 46 0 56 13 58 75 2 47 -1 58 -19
70 -26 19 -66 19 -66 1z"/>
</g>
</svg>
